<svg width="100" height="100" viewBox="0 0 100 100" fill="none" xmlns="http://www.w3.org/2000/svg">
<path fill-rule="evenodd" clip-rule="evenodd" d="M50.3013 4.6188L34.1571 13.9396L41.8731 18.4563C40.3376 19.006 38.8716 19.7017 37.4918 20.5266L30.1708 16.2411L12.8026 26.2687L26.5643 34.1325C26.1318 35.4384 25.8039 36.7919 25.5908 38.1832L11 29.8456V72.6906L48.3013 94.2265L48.3013 66.9212C48.9611 66.9734 49.6281 67 50.3013 67C50.9745 67 51.6415 66.9734 52.3013 66.9212L52.3013 94.2265L89.6025 72.6906V29.3118L74.9636 37.881C74.7336 36.4937 74.3894 35.1449 73.9409 33.8447L87.3385 26.0022L50.3013 4.6188ZM93.6025 25L50.3013 0L7 25V75L50.3013 100L93.6025 75V25Z" fill="#A02828"/>
<circle cx="50" cy="42" r="23" stroke="#A02828" stroke-width="4"/>
<path d="M42 34L49.5 41.5" stroke="#A02828" stroke-width="2.75" stroke-linecap="round"/>
<path d="M37 50H55C59.4183 50 63 46.4183 63 42V42C63 37.5817 59.4183 34 55 34H42.5" stroke="#A02828" stroke-width="4" stroke-linecap="round"/>
<path d="M41 33.5L48.5 26" stroke="#A02828" stroke-width="2.75" stroke-linecap="round"/>
</svg>
