<svg width="100" height="100" viewBox="0 0 100 100" fill="none" xmlns="http://www.w3.org/2000/svg">
<g clip-path="url(#clip0_22_1804)">
<path d="M21.7717 84.7012L44.0549 97.4559C45.5807 98.3292 47.3681 98.6293 49.0955 98.3022L96.256 89.3702C97.5562 89.124 98.1823 87.6297 97.4459 86.5302L92.316 78.8702C90.6448 76.3748 87.6283 75.1407 84.6872 75.7491L55.4564 81.7966L45.1867 76.4025" stroke="#A02828" stroke-width="4" stroke-linecap="round"/>
<path d="M20.95 63.5394L32.1046 57.9058C33.901 56.9985 35.9899 56.864 37.8878 57.5335L57.0427 64.29C59.3857 65.1165 61.1558 67.0662 61.7527 69.4779L64.0827 78.8921" stroke="#A02828" stroke-width="4" stroke-linecap="round"/>
<rect x="2" y="54.751" width="18.1826" height="39.9833" rx="5.38166" stroke="#A02828" stroke-width="4"/>
<path d="M62.7138 9.64886H57.2738C57.8072 9.9902 58.2232 10.3849 58.5218 10.8329C58.8205 11.2702 59.0338 11.7502 59.1618 12.2729H62.7138V15.3129H59.1458C58.9005 16.3049 58.4098 17.1849 57.6738 17.9529C56.9378 18.7209 55.9725 19.3182 54.7778 19.7449C55.1085 19.8942 55.4125 20.0915 55.6898 20.3369C55.9778 20.5822 56.2338 20.8755 56.4578 21.2169L62.2498 29.7609H58.3618C57.6365 29.7609 57.1032 29.4729 56.7618 28.8969L51.8978 21.4889C51.7165 21.2115 51.5138 21.0142 51.2898 20.8969C51.0765 20.7795 50.7565 20.7209 50.3298 20.7209H47.3218V17.8089H50.4898C51.7058 17.8089 52.6765 17.5795 53.4018 17.1209C54.1378 16.6622 54.6552 16.0595 54.9538 15.3129H47.3058V12.2729H55.0498C54.7938 11.4942 54.2925 10.8862 53.5458 10.4489C52.8098 10.0009 51.8125 9.77686 50.5538 9.77686H47.3218V6.62486H62.7138V9.64886Z" fill="#A02828"/>
<rect x="-2" y="2" width="83.3479" height="34.3479" rx="8" transform="matrix(-1 0 0 1 96 -0.17392)" stroke="#A02828" stroke-width="4"/>
<path d="M24.2784 1.95651H13.4588C10.6712 1.95651 8.42189 4.23611 8.45922 7.02347L8.78181 31.1105C8.81844 33.8455 11.0461 36.0435 13.7814 36.0435H24.3696" stroke="#A02828" stroke-width="4" stroke-linecap="round"/>
<path d="M20.1086 1.95651H7.06771C4.27996 1.95651 2.03063 4.23633 2.06816 7.02383L2.39248 31.1108C2.4293 33.8457 4.65685 36.0435 7.39202 36.0435H18.0634" stroke="#A02828" stroke-width="4" stroke-linecap="round"/>
</g>
<defs>
<clipPath id="clip0_22_1804">
<rect width="100" height="100" fill="white"/>
</clipPath>
</defs>
</svg>
