<svg width="100" height="100" viewBox="0 0 100 100" fill="none" xmlns="http://www.w3.org/2000/svg">
<circle cx="81.3333" cy="90.6666" r="7.33333" stroke="#A02828" stroke-width="4"/>
<line x1="94" y1="56" x2="88" y2="56" stroke="#A02828" stroke-width="4" stroke-linecap="round"/>
<line x1="73" y1="77" x2="2" y2="77" stroke="#A02828" stroke-width="4" stroke-linecap="round"/>
<line x1="74" y1="62" x2="3" y2="62" stroke="#A02828" stroke-width="4" stroke-linecap="round"/>
<path d="M76 34H81.8987C83.6361 34 85.249 34.902 86.1587 36.3823L96.26 52.8207C96.7438 53.6081 97 54.5143 97 55.4385V85C97 87.7614 94.7614 90 92 90H89.26" stroke="#A02828" stroke-width="4"/>
<circle cx="30.3333" cy="90.3333" r="7.33333" stroke="#A02828" stroke-width="4"/>
<path fill-rule="evenodd" clip-rule="evenodd" d="M10 4H66C69.3137 4 72 6.68629 72 10V81C72 84.3137 69.3137 87 66 87H36.2204C36.3269 87.845 36.383 88.7219 36.383 89.6212C36.383 90.0872 36.3679 90.5473 36.3386 91H66C71.5229 91 76 86.5229 76 81V10C76 4.47715 71.5229 0 66 0H10C4.47715 0 0 4.47715 0 10V81C0 86.5229 4.47716 91 10 91H18.5957H21.8742C21.8449 90.5473 21.8298 90.0872 21.8298 89.6212C21.8298 88.7219 21.8859 87.845 21.9925 87H18.5957H10C6.68629 87 4 84.3137 4 81V10C4 6.68629 6.68629 4 10 4Z" fill="#A02828"/>
<path d="M16.31 31.68V35.96H21.73V38.11H16.31V44H13.61V29.54H22.73V31.68H16.31ZM30.3081 36.42C30.8148 36.42 31.2548 36.3567 31.6281 36.23C32.0081 36.1033 32.3181 35.93 32.5581 35.71C32.8048 35.4833 32.9881 35.2167 33.1081 34.91C33.2281 34.6033 33.2881 34.2667 33.2881 33.9C33.2881 33.1667 33.0448 32.6033 32.5581 32.21C32.0781 31.8167 31.3415 31.62 30.3481 31.62H28.6281V36.42H30.3081ZM37.2281 44H34.7981C34.3381 44 34.0048 43.82 33.7981 43.46L30.7581 38.83C30.6448 38.6567 30.5181 38.5333 30.3781 38.46C30.2448 38.3867 30.0448 38.35 29.7781 38.35H28.6281V44H25.9381V29.54H30.3481C31.3281 29.54 32.1681 29.6433 32.8681 29.85C33.5748 30.05 34.1515 30.3333 34.5981 30.7C35.0515 31.0667 35.3848 31.5067 35.5981 32.02C35.8115 32.5267 35.9181 33.0867 35.9181 33.7C35.9181 34.1867 35.8448 34.6467 35.6981 35.08C35.5581 35.5133 35.3515 35.9067 35.0781 36.26C34.8115 36.6133 34.4781 36.9233 34.0781 37.19C33.6848 37.4567 33.2348 37.6667 32.7281 37.82C32.9015 37.92 33.0615 38.04 33.2081 38.18C33.3548 38.3133 33.4881 38.4733 33.6081 38.66L37.2281 44ZM42.4897 31.68V35.69H47.5497V37.76H42.4897V41.85H48.9097V44H39.7897V29.54H48.9097V31.68H42.4897ZM54.9936 31.68V35.69H60.0536V37.76H54.9936V41.85H61.4136V44H52.2936V29.54H61.4136V31.68H54.9936Z" fill="#A02828"/>
</svg>
