<?xml version="1.0" encoding="UTF-8"?>
<svg id="Layer_1" data-name="Layer 1" xmlns="http://www.w3.org/2000/svg" viewBox="0 0 145 41">
  <defs>
    <style>
      .cls-1 {
        fill: #cf2228;
        fill-rule: evenodd;
        stroke-width: 0px;
      }
    </style>
  </defs>
  <path class="cls-1" d="m39.14,22.21v15.48c-5.38.22-5.06-3.5-5.06-3.5v-17.66c-6.57.04-6.43,5.88-6.43,5.88l.05,11.66c.12,5.61,6.83,5.59,6.83,5.59h10.52s.06-23.03.06-23.03c-6.37-.13-5.97,5.6-5.97,5.6"/>
  <path class="cls-1" d="m57.62,16.63s-5.17.18-4.93,5.06l-.06,13.52s.1,2.49-4.29,2.49v1.92s5.52.02,5.52.02c0,0,5.02.16,5.17-4.7l.12-13.52s-.09-3.37,4.75-3.63v-1.23s-6.28.05-6.28.05Z"/>
  <path class="cls-1" d="m79.67,16.65l-6.1-.08.09-5.23s.38-5.96-6.34-5.92l.06,34.14s5.96.61,6.33-5.48l-.06-15.66h2.08s3.08-.02,2.91,3.5l.12,17.59s5.77.06,6.18-5.22l.18-13.37s.27-3.91-5.46-4.28"/>
  <path class="cls-1" d="m134.5,16.63s-5.16.18-4.93,5.06l-.06,13.52s.1,2.49-4.29,2.49v1.92s5.52.02,5.52.02c0,0,5.01.16,5.17-4.7l.12-13.52s-.09-3.37,4.75-3.63v-1.23l-6.28.05Z"/>
  <path class="cls-1" d="m117.96,35.16V5.31c-7.43-.42-7.02,6.23-7.02,6.23l.12,22.27c.09,5.64,5.16,5.85,5.16,5.85h5.89l.04-1.95c-4.42.37-4.2-2.54-4.2-2.54"/>
  <path class="cls-1" d="m127.99,4.31l-.02-2.95s-4.38-.31-4.56,2.45l.03,3.08s4.31.76,4.54-2.58"/>
  <path class="cls-1" d="m106.24,35.66l.05-14.07s.31-5.07-5.28-5.03c-5.87.04-6.67-.04-6.67-.04,0,0-5.76-.13-5.7,5.38l-.12,12.01s-.3,5.56,7.6,5.69l10.11-.13h0s3,0,3,0v-1.77s-2.72.19-2.98-2.04m-6.22,2.04s-5.02.42-4.99-3.62l.11-11.91s-.05-1.84.24-2.78c.44-1.08,2-1.14,3.52-.9,0,0,.98.14,1.07,1.45.1,1.53.05,17.77.05,17.77"/>
  <path class="cls-1" d="m17.82,22.65c2.98-.35,4-5.16,4-5.16l4.02-12.26c-5.82-.56-7.7,5.02-7.7,5.02l-2.87,7.47c-.89,2.87-2.97,4.04-2.97,4.04h-1.73l.03-16.48c-5.63-.03-6.07,4.69-6.16,6.15l-.24,28.14c6.42.3,6.34-5.82,6.34-5.82l.02-10.19h1.74s2.07,1.18,2.97,4.05l2.69,6.84s1.88,5.58,7.7,5.02l-3.84-11.64s-1.03-4.84-4.03-5.17c0,0,.01,0,.02,0h0Z"/>
</svg>