<svg width="101" height="101" viewBox="0 0 101 101" fill="none" xmlns="http://www.w3.org/2000/svg">
<path d="M52.116 34.8331C51.504 35.0556 50.496 35.0556 49.884 34.8331C44.664 32.9978 33 25.341 33 12.3635C33 6.63483 37.482 2 43.008 2C46.284 2 49.182 3.63146 51 6.15281C52.818 3.63146 55.734 2 58.992 2C64.518 2 69 6.63483 69 12.3635C69 25.341 57.336 32.9978 52.116 34.8331Z" stroke="#A02828" stroke-width="4" stroke-linecap="round" stroke-linejoin="round"/>
<path d="M50.8913 69.4155C50.6758 69.3843 50.3986 69.3843 50.1523 69.4155C44.7324 69.2283 40.4211 64.7362 40.4211 59.2146C40.4211 53.5682 44.9172 48.9825 50.5218 48.9825C56.0956 48.9825 60.6224 53.5682 60.6224 59.2146C60.5916 64.7362 56.3112 69.2283 50.8913 69.4155Z" stroke="#A02828" stroke-width="4" stroke-linecap="round" stroke-linejoin="round"/>
<path d="M71.2771 90.0045C65.7956 95.0893 58.5281 98.1777 50.5215 98.1777C42.5149 98.1777 35.2473 95.0893 29.7659 90.0045C30.0738 87.0721 31.9215 84.2021 35.2165 81.956C43.6543 76.2785 57.4503 76.2785 65.8264 81.956C69.1214 84.2021 70.9691 87.0721 71.2771 90.0045Z" stroke="#A02828" stroke-width="4" stroke-linecap="round" stroke-linejoin="round"/>
<path fill-rule="evenodd" clip-rule="evenodd" d="M4.82897 79.273C5.324 77.347 6.72347 75.3454 9.23868 73.6295C13.0595 71.0604 18.2045 69.7154 23.4452 69.7154C28.6879 69.7154 33.8157 71.0613 37.603 73.6278C39.9559 75.2323 41.3329 77.0868 41.9069 78.8957C43.178 78.5263 44.4916 78.2423 45.8279 78.0437C44.9997 75.083 42.9066 72.4021 39.8535 70.3209L39.8492 70.318C35.2606 67.2077 29.3031 65.7154 23.4452 65.7154C17.5866 65.7154 11.617 67.208 7.00061 70.3142L7.00059 70.3142L6.99065 70.321C3.33964 72.8097 1.06146 76.1561 0.677423 79.8131C0.611657 80.4393 0.844663 81.06 1.30631 81.4882C7.14026 86.9001 14.8878 90.1951 23.4221 90.1951C25.6143 90.1951 27.7546 89.9777 29.8238 89.5629C30.0801 87.9423 30.8077 86.3496 31.9908 84.8802C29.286 85.7355 26.4092 86.1951 23.4221 86.1951C16.3268 86.1951 9.85382 83.6016 4.82897 79.273Z" fill="#A02828"/>
<path d="M23.7915 59.433C23.5759 59.4018 23.2988 59.4018 23.0524 59.433C17.6325 59.2458 13.3213 54.7537 13.3213 49.2321C13.3213 43.5857 17.8173 39 23.4219 39C28.9958 39 33.5226 43.5857 33.5226 49.2321C33.4918 54.7537 29.2113 59.2458 23.7915 59.433Z" stroke="#A02828" stroke-width="4" stroke-linecap="round" stroke-linejoin="round"/>
<path fill-rule="evenodd" clip-rule="evenodd" d="M59.1387 78.8869C59.7141 77.0814 61.0897 75.231 63.4373 73.6295C67.2581 71.0604 72.4031 69.7154 77.6437 69.7154C82.8865 69.7154 88.0142 71.0613 91.8016 73.6278C94.3183 75.3441 95.7186 77.3464 96.2138 79.273C91.1889 83.6016 84.7159 86.1951 77.6207 86.1951C74.6336 86.1951 71.7568 85.7355 69.0519 84.8802C70.2351 86.3496 70.9626 87.9423 71.2189 89.5629C73.2882 89.9777 75.4285 90.1951 77.6207 90.1951C86.1549 90.1951 93.9025 86.9001 99.7364 81.4882C100.198 81.06 100.431 80.4393 100.365 79.8131C99.9813 76.1561 97.7031 72.8097 94.0521 70.3209L94.0477 70.318C89.4591 67.2077 83.5017 65.7154 77.6437 65.7154C71.7852 65.7154 65.8156 67.208 61.1992 70.3142L61.1992 70.3142L61.1892 70.321C58.1382 72.4007 56.0459 75.0794 55.2165 78.0377C56.554 78.2349 57.8681 78.518 59.1387 78.8869Z" fill="#A02828"/>
<path d="M77.9902 59.433C77.7746 59.4018 77.4975 59.4018 77.2511 59.433C71.8313 59.2458 67.52 54.7537 67.52 49.2321C67.52 43.5857 72.016 39 77.6207 39C83.1945 39 87.7213 43.5857 87.7213 49.2321C87.6905 54.7537 83.4101 59.2458 77.9902 59.433Z" stroke="#A02828" stroke-width="4" stroke-linecap="round" stroke-linejoin="round"/>
</svg>
